<svg width="25" height="27" viewBox="0 0 25 27" fill="none" xmlns="http://www.w3.org/2000/svg">
<path d="M10.0518 17.0312H14.9482C19.6876 17.0313 23.4999 20.8064 23.5 25.4336C23.5 25.7313 23.2502 25.9999 22.9092 26H2.09082C1.74976 25.9999 1.5 25.7313 1.5 25.4336C1.50011 20.8064 5.31243 17.0313 10.0518 17.0312ZM12.5 1C13.961 1 15.3628 1.53621 16.4365 2.49316L16.6475 2.68945C17.7442 3.76904 18.3574 5.23014 18.3574 6.75C18.3574 8.17498 17.8179 9.54787 16.8467 10.6035L16.6475 10.8105C15.5502 11.8907 14.0584 12.5 12.5 12.5C10.9416 12.5 9.4498 11.8907 8.35254 10.8105C7.25582 9.73096 6.64258 8.26986 6.64258 6.75C6.64258 5.23014 7.25582 3.76904 8.35254 2.68945C9.4498 1.60934 10.9416 1 12.5 1Z" stroke="#FA413D" stroke-width="2"/>
</svg>
