<svg width="148" height="72" viewBox="0 0 148 72" fill="none" xmlns="http://www.w3.org/2000/svg">
<mask id="path-1-inside-1_45_6" fill="white">
<rect width="148" height="72" rx="7"/>
</mask>
<rect width="148" height="72" rx="7" stroke="#FA413D" stroke-width="16" mask="url(#path-1-inside-1_45_6)"/>
<path d="M47.36 50H39.52L29.08 34.24V50H21.24V21.8H29.08L39.52 37.76V21.8H47.36V50ZM65.3459 50.28C62.7059 50.28 60.2793 49.6667 58.0659 48.44C55.8526 47.1867 54.0926 45.4667 52.7859 43.28C51.5059 41.0667 50.8659 38.5733 50.8659 35.8C50.8659 33.0267 51.5059 30.5467 52.7859 28.36C54.0926 26.1467 55.8526 24.4267 58.0659 23.2C60.2793 21.9733 62.7059 21.36 65.3459 21.36C68.0126 21.36 70.4393 21.9733 72.6259 23.2C74.8393 24.4267 76.5859 26.1467 77.8659 28.36C79.1459 30.5467 79.7859 33.0267 79.7859 35.8C79.7859 38.5733 79.1459 41.0667 77.8659 43.28C76.5859 45.4667 74.8393 47.1867 72.6259 48.44C70.4126 49.6667 67.9859 50.28 65.3459 50.28ZM65.3459 43C67.3459 43 68.9193 42.3467 70.0659 41.04C71.2393 39.7333 71.8259 37.9867 71.8259 35.8C71.8259 33.56 71.2393 31.8 70.0659 30.52C68.9193 29.2133 67.3459 28.56 65.3459 28.56C63.3193 28.56 61.7326 29.2133 60.5859 30.52C59.4393 31.8 58.8659 33.56 58.8659 35.8C58.8659 38.0133 59.4393 39.7733 60.5859 41.08C61.7326 42.36 63.3193 43 65.3459 43ZM105.59 31.2C105.59 32.9067 105.19 34.4667 104.39 35.88C103.617 37.2667 102.43 38.3867 100.83 39.24C99.257 40.0667 97.3236 40.48 95.0303 40.48H91.1503V50H83.3103V21.8H95.0303C97.297 21.8 99.217 22.2 100.79 23C102.39 23.8 103.59 24.9067 104.39 26.32C105.19 27.7333 105.59 29.36 105.59 31.2ZM94.2703 34.24C96.4836 34.24 97.5903 33.2267 97.5903 31.2C97.5903 29.1467 96.4836 28.12 94.2703 28.12H91.1503V34.24H94.2703ZM116.58 28.08V32.68H125.58V38.64H116.58V43.72H126.78V50H108.74V21.8H126.78V28.08H116.58Z" fill="#FA413D"/>
</svg>
