<svg width="95" height="95" viewBox="0 0 95 95" fill="none" xmlns="http://www.w3.org/2000/svg">
<circle cx="47.5" cy="47.5" r="47.5" fill="#FA413D"/>
<path d="M62.1121 38.1234C63.2835 36.9521 63.2835 35.0498 62.1121 33.8785C60.9408 32.7072 59.0386 32.7072 57.8672 33.8785L48 43.7551L38.1234 33.8879C36.9521 32.7165 35.0498 32.7165 33.8785 33.8879C32.7072 35.0592 32.7072 36.9614 33.8785 38.1327L43.7551 48L33.8879 57.8766C32.7165 59.0479 32.7165 60.9502 33.8879 62.1215C35.0592 63.2928 36.9614 63.2928 38.1328 62.1215L48 52.2449L57.8766 62.1121C59.0479 63.2835 60.9502 63.2835 62.1215 62.1121C63.2928 60.9408 63.2928 59.0386 62.1215 57.8672L52.2449 48L62.1121 38.1234Z" fill="white"/>
</svg>
