<?xml version="1.0" encoding="UTF-8"?>
<svg id="Laag_1" data-name="Laag 1" xmlns="http://www.w3.org/2000/svg" viewBox="0 0 385.19 497.71">
  <defs>
    <style>
      .cls-1 {
        fill: #fa413d;
        stroke: #fa413d;
        stroke-miterlimit: 10;
        stroke-width: 7px;
      }

      .cls-2 {
        fill: #e9e9e9;
        stroke-width: 0px;
      }
    </style>
  </defs>
  <path class="cls-2" d="M383.85,497.71V0c.35.17.93.29,1,.54.15.57.05,1.21.05,1.82,0,164.33,0,328.67-.07,493,0,.67,1.29,2.42-.97,2.36Z"/>
  <path class="cls-1" d="M191.82,144.5c10.91-18.39,26.02-31.46,45.49-39.24,14.39-5.76,29.41-7.74,44.82-5.44,23.19,3.46,42.38,14.13,57.45,32.19,9.36,11.22,15.53,24.04,18.65,38.22,2.37,10.79,2.65,21.68.77,32.7-2.99,17.52-10.03,33.36-18.88,48.55-13.01,22.34-29.54,41.94-47.25,60.58-17.31,18.21-35.82,35.17-55.34,50.94-14.37,11.6-29.35,22.45-44.02,33.68-1.32,1.01-2.17.92-3.57-.03-16.89-11.58-33.21-23.94-48.69-37.33-14.3-12.38-28.56-24.85-42.13-38.02-17.9-17.37-34.31-36.15-48.3-56.89-8.4-12.46-15.61-25.59-20.85-39.72-4.05-10.93-6.65-22.23-6.77-33.9-.18-17.51,4.23-33.81,13.52-48.82,8.49-13.7,19.75-24.47,33.81-32.05,17.13-9.24,35.55-12.89,54.94-10.12,24.05,3.44,43.5,15.14,58.79,33.87,2.73,3.34,4.96,7.08,7.56,10.83ZM191.66,176.89c-.64-1.65-1.01-2.7-1.45-3.72-3.35-7.71-6.13-15.74-10.19-23.06-6.66-11.99-16.4-21.23-28.31-28.09-8.21-4.73-16.98-7.96-26.36-9.39-11.17-1.71-22.19-1.03-33.1,2.05-10.45,2.95-19.8,7.91-28.13,14.81-11.43,9.48-19.5,21.25-24.27,35.37-4.57,13.5-5.02,27.18-2.24,40.98,2.1,10.44,6.08,20.3,10.91,29.78,9.44,18.52,21.5,35.3,35.31,50.72,11.1,12.4,22.66,24.44,34.68,35.94,11.41,10.91,23.55,21.07,35.62,31.27,8.22,6.94,16.82,13.42,25.33,20,4.02,3.11,8.23,5.98,12.58,9.12,11.32-8.86,22.59-17.54,33.71-26.41,18.13-14.46,35.34-29.97,51.66-46.44,13.81-13.93,26.83-28.57,38.4-44.46,11.29-15.51,21.24-31.75,27.17-50.12,3.83-11.86,5.83-23.94,3.85-36.53-2.8-17.81-10.41-33.03-23.39-45.5-10.05-9.65-21.92-16.08-35.47-19.33-10.83-2.6-21.76-2.84-32.67-.71-10.43,2.03-20.02,6.16-28.81,12.22-13.27,9.14-22.89,21.12-28.78,36.11-1.93,4.91-3.86,9.81-6.05,15.39Z"/>
</svg>