<svg width="34" height="29" viewBox="0 0 34 29" fill="none" xmlns="http://www.w3.org/2000/svg">
<path d="M18.8564 3.83398C20.5646 2.13029 22.9522 1.29237 25.3467 1.54395L25.8252 1.6084C29.6798 2.25026 32.4999 5.57452 32.5 9.46777V9.85254C32.4999 12.0393 31.6481 14.1367 30.1309 15.7002L29.8184 16.0049L29.8164 16.0068L17.8174 27.1797C17.5981 27.3839 17.3063 27.5 17 27.5C16.6937 27.5 16.4019 27.3839 16.1826 27.1797H16.1816L4.18359 16.0068L4.18164 16.0049L3.86914 15.7002C2.35188 14.1367 1.50012 12.0393 1.5 9.85254V9.46777C1.50007 5.69593 4.14717 2.45866 7.81738 1.67676L8.1748 1.6084C10.5671 1.21072 12.9972 1.91775 14.793 3.50488L15.1436 3.83398L15.9404 4.62891L17 5.68555L18.0596 4.62891L18.8564 3.83398Z" stroke="#FA413D" stroke-width="3"/>
</svg>
