<svg width="32" height="28" viewBox="0 0 32 28" fill="none" xmlns="http://www.w3.org/2000/svg">
<path d="M16.0205 1C16.2274 1.00007 16.4044 1.06378 16.501 1.14355L30.2334 13.4033L30.2354 13.4053C30.501 13.6414 30.5068 13.7817 30.498 13.8613L30.4922 13.915V13.9697C30.4922 14.4 30.1338 14.7244 29.7695 14.7246H27.042L27.0469 15.7295L27.084 24.4883C27.0838 24.5872 27.0769 24.6952 27.0635 24.8184L27.0576 24.873V25.8125C27.0576 26.4832 26.527 26.9998 25.9043 27H24.9766C24.9635 26.9997 24.9579 26.9991 24.957 26.999L24.875 26.9912L24.793 26.9971C24.7597 26.9995 24.7201 26.999 24.6387 26.999L22.8926 26.9941H21.5977C20.9749 26.9941 20.4444 26.4783 20.4443 25.8076V20.9961C20.4443 19.4909 19.2412 18.2463 17.7217 18.2461H14.2764C12.7566 18.2461 11.5537 19.4907 11.5537 20.9961V25.8076C11.5536 26.4782 11.023 26.9939 10.4004 26.9941H7.39062C7.34936 26.9941 7.30224 26.9922 7.21582 26.9863L7.13965 26.9805L7.06445 26.9873C6.9934 26.9933 6.97034 26.9941 6.95508 26.9941H6.09375C5.47097 26.9941 4.94051 26.4783 4.94043 25.8076V19.627L4.94531 19.585V14.7197H2.22266C1.82269 14.7197 1.50018 14.4188 1.5 13.9648C1.5 13.731 1.5624 13.5529 1.7334 13.3721L15.499 1.18652L15.5244 1.16309L15.5488 1.13867C15.6121 1.07457 15.666 1.04861 15.7197 1.03223C15.7859 1.01209 15.8758 1 16.0205 1Z" stroke="#FA413D" stroke-width="2"/>
</svg>
