<svg width="95" height="95" viewBox="0 0 95 95" fill="none" xmlns="http://www.w3.org/2000/svg">
<circle cx="47.5" cy="47.5" r="47.5" fill="white"/>
<path d="M33.3469 50.2842L46.0523 62.2283C46.5797 62.7239 47.2758 63 48 63C48.7242 63 49.4203 62.7239 49.9477 62.2283L62.6531 50.2842C64.7906 48.2805 66 45.4698 66 42.5315V42.1209C66 37.1719 62.4492 32.9522 57.6047 32.138C54.3984 31.5999 51.1359 32.6548 48.8438 34.9629L48 35.8126L47.1562 34.9629C44.8641 32.6548 41.6016 31.5999 38.3953 32.138C33.5508 32.9522 30 37.1719 30 42.1209V42.5315C30 45.4698 31.2094 48.2805 33.3469 50.2842Z" fill="#FA413D"/>
</svg>
