<?xml version="1.0" encoding="UTF-8"?>
<svg id="Laag_1" data-name="Laag 1" xmlns="http://www.w3.org/2000/svg" viewBox="0 0 512 512">
  <defs>
    <style>
      .cls-1 {
        fill: #fa413d;
      }

      .cls-1, .cls-2, .cls-3 {
        stroke-width: 0px;
      }

      .cls-2 {
        fill: #0863ae;
      }

      .cls-3 {
        fill: #fec843;
      }
    </style>
  </defs>
  <path class="cls-1" d="M218.04,142.75c1.7,4.07,3.3,8.18,5.2,12.15.34.7,1.95,1.1,2.97,1.11,14.18.07,28.35.05,42.53.05,2.79,0,5.57,0,8.86,0-1.21-2.87-2.24-5.35-3.29-7.81-.97-2.28-2.27-4.6-.16-6.86,2.28-2.44,5.25-1.96,8.12-1.51.73.11,1.41.56,2.12.85,1.77,3.55,3.53,7.09,5.3,10.64,3.23,7.37,6.46,14.74,9.69,22.11,2.91,6.78,5.81,13.57,8.73,20.34.16.37.46.72.77.98,2.82,2.43,5.67,4.83,8.51,7.24,3.21-5.03,8.06-8.21,14.51-8.2,7.3,0,12.79,3.47,15.79,10.12,3.1,6.87,2.33,13.63-2.85,19.23-7.55,8.18-15.41,16.07-23.2,24.03-2.93,2.99-6.09,2.94-9.15-.09-3.27-3.22-6.44-6.54-9.63-9.84-4.73-4.88-9.69-9.57-14.12-14.72-7.51-8.72-4.94-21.78,5.06-27.33.58-.32,1.13-.67,1.9-1.13-2.2-4.98-4.35-9.86-6.51-14.74-1.18-2.8-2.37-5.6-3.7-8.76-4.08,4.85-7.9,9.39-11.72,13.92-9.3,11.06-18.59,22.14-27.9,33.19-2.84,3.37-6.33,5.31-10.9,5.03-2.29-.14-4.59,0-6.89.02-4.27,0-8.54.02-12.82.03-9.93-.02-19.85-.08-29.78-.03-3.28.02-6.1-.73-7.79-3.77-1.64-2.96-.36-5.48,1.28-8.03,5.31-8.28,10.52-16.63,15.77-24.95,2.23-3.67,4.46-7.33,6.69-11,3.38-5.38,6.8-10.73,10.07-16.17.41-.68.26-1.95-.07-2.77-1.78-4.48-3.71-8.91-5.58-13.35,4.07,0,8.14.02,12.2.02ZM227.51,211.12h7.37c-5.92-13.38-11.58-26.18-17.46-39.46-2.18,3.63-4.13,6.87-6.08,10.11-2.18,3.59-4.37,7.17-6.55,10.76-3.97,6.06-7.93,12.12-12.13,18.54h22.53c4.11.01,8.21.03,12.32.04ZM243.3,203.15c9.81-11.72,19.35-23.11,29.19-34.87h-44.3c5.08,11.72,10.01,23.11,15.11,34.87Z"/>
  <path class="cls-3" d="M289.17,179.37c2.15,4.88,4.31,9.75,6.51,14.74-.76.46-1.32.81-1.9,1.13-10.01,5.55-12.57,18.61-5.06,27.33,4.43,5.15,9.38,9.84,14.12,14.72,3.19,3.3,6.36,6.62,9.63,9.84,3.07,3.02,6.23,3.08,9.15.09,7.79-7.96,15.65-15.85,23.2-24.03,5.17-5.61,5.94-12.36,2.85-19.23-2.99-6.65-8.48-10.12-15.79-10.12-6.45,0-11.3,3.18-14.51,8.2-2.84-2.41-5.68-4.82-8.51-7.24-.31-.27-.61-.61-.77-.98-2.92-6.78-5.82-13.56-8.73-20.34,10.5-4.33,21.26-5.13,32.22-2.18,19.47,5.24,34.6,24.38,35.22,44.41.78,25.26-16.22,46.02-41.17,50.28-26.89,4.59-53.08-14.6-56.15-41.69-2.1-18.54,4.66-33.65,19.7-44.91Z"/>
  <path class="cls-2" d="M180.96,344.53c.69-1.53,1.16-2.38,1.48-3.29,6.47-18.35,12.97-36.69,19.33-55.08.88-2.55,2.33-3.52,4.84-3.49,3.83.05,7.65,0,11.48.05,3.26.04,3.94,1.03,2.76,4.11-6.72,17.54-13.45,35.08-20.19,52.62-2.76,7.19-5.53,14.38-8.32,21.56-1.42,3.66-2.52,4.43-6.46,4.48-3.32.04-6.63,0-9.95.02-2.92.02-4.65-1.43-5.74-4.11-8.82-21.81-17.7-43.6-26.57-65.4-1.24-3.06-2.57-6.08-3.77-9.15-1.13-2.91-.24-4.15,2.87-4.16,4.08,0,8.17.06,12.25-.03,2.48-.05,3.85,1,4.69,3.36,6.55,18.42,13.19,36.81,19.82,55.2.33.91.79,1.76,1.48,3.3Z"/>
  <path class="cls-3" d="M201.41,175.02c-2.23,3.67-4.46,7.33-6.69,11-11.99-5.26-23.58-4.06-34.14,3.26-10.86,7.52-16.09,18.41-14.86,31.63,2.25,24.16,26.17,38.95,48.14,29.8,12.27-5.11,19.63-14.48,21.39-27.9,4.27,0,8.54-.02,12.82-.03-2.15,18.62-11.63,32.27-28.8,39.63-17.21,7.38-33.75,4.82-48.44-6.81-12.51-9.9-18.58-23.18-18.29-39.17.4-22.22,17.9-42.16,39.83-45.69,10.16-1.63,19.79-.01,29.04,4.29Z"/>
  <path class="cls-2" d="M338.81,341.11c1.54-3.86,2.79-6.98,4.04-10.11,3.21-8.11,6.47-16.2,9.61-24.33.89-2.3,2.23-3.37,4.76-3.24,3.22.16,6.46.03,9.7.04,3.9,0,4.65,1.04,3.19,4.57-5.4,12.97-10.81,25.94-16.27,38.89-3.85,9.13-7.68,18.27-11.72,27.31-3.96,8.85-10.94,14.29-20.17,16.93-3,.86-4.06.34-5.45-2.53-.37-.76-.72-1.54-1.06-2.31-2.04-4.69-1.94-5.37,2.12-8.35,5.99-4.4,9.62-10.41,11.98-17.29.25-.73.02-1.78-.31-2.54-7.43-16.81-14.91-33.6-22.37-50.39-1.52-3.43-.97-4.29,2.72-4.29,3.4,0,6.81.09,10.21-.03,2.45-.09,3.86.79,4.8,3.16,4.27,10.69,8.7,21.31,13.08,31.96.25.6.54,1.18,1.17,2.56Z"/>
  <path class="cls-2" d="M231.59,338.71c.34,6.46,4.79,12.17,10.77,14.07,5.68,1.81,12.89-.34,16.71-5.35,2.89-3.79,3.16-3.05,6.43-.78,1.88,1.31,3.75,2.65,5.68,3.88,1.86,1.18,2.02,2.4.66,4.16-6.41,8.28-14.95,11.94-25.25,11.89-24.35-.11-32.97-21.07-30.54-37.24,1.67-11.1,6.66-19.93,17.35-24.56,9.85-4.27,25.82-3.77,34.43,6.1,5.04,5.78,7.15,12.61,7.49,20.08.37,8.22.39,7.82-7.33,7.78-12.07-.06-24.14-.02-36.4-.02ZM232.11,327.35h27.43c.03-6.35-4.82-11.81-11.11-12.6-7.91-.99-14.32,3.89-16.32,12.6Z"/>
  <path class="cls-2" d="M298.89,322.1c0,13.18,0,26.37,0,39.55,0,3.2-.52,3.74-3.67,3.78-2.64.03-5.27.02-7.91-.01-3.31-.04-3.9-.58-3.91-3.89-.04-12.93-.04-25.86-.04-38.79,0-13.27,0-26.54.02-39.81,0-3.71.4-4.07,4.12-4.08,2.47,0,4.93-.02,7.4,0,3.57.03,3.99.44,3.99,3.95,0,13.1,0,26.2,0,39.3Z"/>
  <path class="cls-2" d="M289.68,151.37c-1.77-3.55-3.53-7.09-5.3-10.64,5.64-2.36,8.13-5.8,7.86-10.87-.2-3.78-2.58-6.51-6.37-6.6-8.33-.21-16.66-.15-24.99-.22-1.19,0-2.38-.03-3.56-.17-3.24-.37-5.16-2.38-5.3-5.44-.13-2.99,1.93-5.55,5.02-6.09,1.08-.19,2.2-.18,3.3-.18,8.25-.02,16.49.03,24.74-.05,10.14-.09,18.48,7.97,18.96,18.12.45,9.67-3.97,16.35-12.12,20.96-.74.42-1.5.79-2.25,1.18Z"/>
  <path class="cls-2" d="M218.04,142.75c-4.07,0-8.13-.02-12.2-.02-3.4-.02-6.8-.03-10.2-.08-4.44-.07-7.02-2.51-7.03-6.63-.02-4.1,2.53-6.51,7.07-6.53,10.63-.04,21.27-.03,31.9-.01,4.41,0,7.09,2.54,7.09,6.57,0,4.27-2.36,6.51-6.93,6.58-3.23.05-6.46.07-9.69.11Z"/>
  <path class="cls-3" d="M204.79,192.54c2.18-3.59,4.37-7.17,6.55-10.76,9.09,7.74,14.56,17.48,16.16,29.34-4.11-.01-8.21-.03-12.32-.04-1.45-7.31-4.93-13.49-10.4-18.54Z"/>
</svg>