<svg width="65" height="64" viewBox="0 0 65 64" fill="none" xmlns="http://www.w3.org/2000/svg">
<rect x="0.529449" y="31.9706" width="45.2132" height="45.2132" rx="6" transform="rotate(-45 0.529449 31.9706)" fill="#0863AE"/>
<path d="M25.8928 40.2204C25.1387 40.2204 24.5294 40.8349 24.5294 41.5955C24.5294 42.3561 25.1387 42.9706 25.8928 42.9706H29.9828C32.2408 42.9706 34.0728 41.1228 34.0728 38.8453V25.6662L37.2 28.8203C37.7326 29.3574 38.5974 29.3574 39.13 28.8203C39.6626 28.2831 39.6626 27.4108 39.13 26.8737L33.6766 21.3734C33.1441 20.8363 32.2792 20.8363 31.7466 21.3734L26.2932 26.8737C25.7607 27.4108 25.7607 28.2831 26.2932 28.8203C26.8258 29.3574 27.6907 29.3574 28.2232 28.8203L31.3461 25.6662V38.8453C31.3461 39.6059 30.7369 40.2204 29.9828 40.2204H25.8928Z" fill="white"/>
</svg>
