<svg width="50" height="49" viewBox="0 0 50 49" fill="none" xmlns="http://www.w3.org/2000/svg">
<g filter="url(#filter0_d_40_4)">
<circle cx="25" cy="20.5" r="20.5" fill="#0863AE"/>
</g>
<path d="M15.8976 20.0587C15.3675 20.5793 15.3675 21.4248 15.8976 21.9455L22.6837 28.6095C23.2139 29.1302 24.0749 29.1302 24.605 28.6095C25.1352 28.0889 25.1352 27.2434 24.605 26.7228L20.1304 22.3328H33.1428C33.8935 22.3328 34.5 21.7372 34.5 21C34.5 20.2628 33.8935 19.6672 33.1428 19.6672H20.1347L24.6008 15.2772C25.131 14.7566 25.131 13.9111 24.6008 13.3905C24.0706 12.8698 23.2096 12.8698 22.6795 13.3905L15.8934 20.0545L15.8976 20.0587Z" fill="white"/>
<defs>
<filter id="filter0_d_40_4" x="0.5" y="0" width="49" height="49" filterUnits="userSpaceOnUse" color-interpolation-filters="sRGB">
<feFlood flood-opacity="0" result="BackgroundImageFix"/>
<feColorMatrix in="SourceAlpha" type="matrix" values="0 0 0 0 0 0 0 0 0 0 0 0 0 0 0 0 0 0 127 0" result="hardAlpha"/>
<feOffset dy="4"/>
<feGaussianBlur stdDeviation="2"/>
<feComposite in2="hardAlpha" operator="out"/>
<feColorMatrix type="matrix" values="0 0 0 0 0 0 0 0 0 0 0 0 0 0 0 0 0 0 0.25 0"/>
<feBlend mode="normal" in2="BackgroundImageFix" result="effect1_dropShadow_40_4"/>
<feBlend mode="normal" in="SourceGraphic" in2="effect1_dropShadow_40_4" result="shape"/>
</filter>
</defs>
</svg>
